<svg width="1440" height="355" viewBox="0 0 1440 355" fill="none" xmlns="http://www.w3.org/2000/svg">
<path fill-rule="evenodd" clip-rule="evenodd" d="M1440 0H0V65H1440V0ZM24.7945 13.2204C19.2716 13.2204 14.7945 17.6975 14.7945 23.2204V41.7797C14.7945 47.3025 19.2717 51.7797 24.7945 51.7797H73.8356C79.3584 51.7797 83.8356 47.3025 83.8356 41.7797V23.2204C83.8356 17.6975 79.3584 13.2204 73.8356 13.2204H24.7945ZM98.6301 23.2204C98.6301 17.6975 103.107 13.2204 108.63 13.2204H157.671C163.194 13.2204 167.671 17.6975 167.671 23.2204V41.7797C167.671 47.3025 163.194 51.7797 157.671 51.7797H108.63C103.107 51.7797 98.6301 47.3025 98.6301 41.7797V23.2204ZM192.466 13.2204C186.943 13.2204 182.466 17.6975 182.466 23.2204V41.7797C182.466 47.3025 186.943 51.7797 192.466 51.7797H241.507C247.03 51.7797 251.507 47.3025 251.507 41.7797V23.2204C251.507 17.6975 247.03 13.2204 241.507 13.2204H192.466ZM266.301 23.2204C266.301 17.6975 270.779 13.2204 276.301 13.2204H325.342C330.865 13.2204 335.342 17.6975 335.342 23.2204V41.7797C335.342 47.3025 330.865 51.7797 325.342 51.7797H276.301C270.779 51.7797 266.301 47.3025 266.301 41.7797V23.2204ZM360.137 13.2204C354.614 13.2204 350.137 17.6975 350.137 23.2204V41.7797C350.137 47.3025 354.614 51.7797 360.137 51.7797H409.178C414.701 51.7797 419.178 47.3025 419.178 41.7797V23.2204C419.178 17.6975 414.701 13.2204 409.178 13.2204H360.137ZM433.973 23.2204C433.973 17.6975 438.45 13.2204 443.973 13.2204H493.014C498.536 13.2204 503.014 17.6975 503.014 23.2204V41.7797C503.014 47.3025 498.536 51.7797 493.014 51.7797H443.973C438.45 51.7797 433.973 47.3025 433.973 41.7797V23.2204ZM527.808 13.2204C522.285 13.2204 517.808 17.6975 517.808 23.2204V41.7797C517.808 47.3025 522.285 51.7797 527.808 51.7797H576.849C582.372 51.7797 586.849 47.3025 586.849 41.7797V23.2204C586.849 17.6975 582.372 13.2204 576.849 13.2204H527.808ZM601.644 23.2204C601.644 17.6975 606.121 13.2204 611.644 13.2204H660.685C666.208 13.2204 670.685 17.6975 670.685 23.2204V41.7797C670.685 47.3025 666.208 51.7797 660.685 51.7797H611.644C606.121 51.7797 601.644 47.3025 601.644 41.7797V23.2204ZM695.479 13.2204C689.957 13.2204 685.479 17.6975 685.479 23.2204V41.7797C685.479 47.3025 689.957 51.7797 695.479 51.7797H744.521C750.043 51.7797 754.521 47.3025 754.521 41.7797V23.2204C754.521 17.6975 750.043 13.2204 744.521 13.2204H695.479ZM769.315 23.2204C769.315 17.6975 773.792 13.2204 779.315 13.2204H828.356C833.879 13.2204 838.356 17.6975 838.356 23.2204V41.7797C838.356 47.3025 833.879 51.7797 828.356 51.7797H779.315C773.792 51.7797 769.315 47.3025 769.315 41.7797V23.2204ZM863.151 13.2204C857.628 13.2204 853.151 17.6975 853.151 23.2204V41.7797C853.151 47.3025 857.628 51.7797 863.151 51.7797H912.192C917.715 51.7797 922.192 47.3025 922.192 41.7797V23.2204C922.192 17.6975 917.715 13.2204 912.192 13.2204H863.151ZM936.986 23.2204C936.986 17.6975 941.463 13.2204 946.986 13.2204H996.027C1001.55 13.2204 1006.03 17.6975 1006.03 23.2204V41.7797C1006.03 47.3025 1001.55 51.7797 996.027 51.7797H946.986C941.463 51.7797 936.986 47.3025 936.986 41.7797V23.2204ZM1030.82 13.2204C1025.3 13.2204 1020.82 17.6975 1020.82 23.2204V41.7797C1020.82 47.3025 1025.3 51.7797 1030.82 51.7797H1079.86C1085.39 51.7797 1089.86 47.3025 1089.86 41.7797V23.2204C1089.86 17.6975 1085.39 13.2204 1079.86 13.2204H1030.82ZM1104.66 23.2204C1104.66 17.6975 1109.13 13.2204 1114.66 13.2204H1163.7C1169.22 13.2204 1173.7 17.6975 1173.7 23.2204V41.7797C1173.7 47.3025 1169.22 51.7797 1163.7 51.7797H1114.66C1109.13 51.7797 1104.66 47.3025 1104.66 41.7797V23.2204ZM1198.49 13.2204C1192.97 13.2204 1188.49 17.6975 1188.49 23.2204V41.7797C1188.49 47.3025 1192.97 51.7797 1198.49 51.7797H1247.53C1253.06 51.7797 1257.53 47.3025 1257.53 41.7797V23.2204C1257.53 17.6975 1253.06 13.2204 1247.53 13.2204H1198.49ZM1272.33 23.2204C1272.33 17.6975 1276.81 13.2204 1282.33 13.2204H1331.37C1336.89 13.2204 1341.37 17.6975 1341.37 23.2204V41.7797C1341.37 47.3025 1336.89 51.7797 1331.37 51.7797H1282.33C1276.81 51.7797 1272.33 47.3025 1272.33 41.7797V23.2204ZM1366.16 13.2204C1360.64 13.2204 1356.16 17.6975 1356.16 23.2204V41.7797C1356.16 47.3025 1360.64 51.7797 1366.16 51.7797H1415.21C1420.73 51.7797 1425.21 47.3025 1425.21 41.7797V23.2204C1425.21 17.6975 1420.73 13.2204 1415.21 13.2204H1366.16Z" fill="#FECA91"/>
<rect y="64.5" width="1440" height="225" fill="#FECA91"/>
<path fill-rule="evenodd" clip-rule="evenodd" d="M1440 289.5H0V354.5H1440V289.5ZM24.7945 302.72C19.2716 302.72 14.7945 307.198 14.7945 312.72V331.28C14.7945 336.803 19.2717 341.28 24.7945 341.28H73.8356C79.3584 341.28 83.8356 336.803 83.8356 331.28V312.72C83.8356 307.198 79.3584 302.72 73.8356 302.72H24.7945ZM98.6301 312.72C98.6301 307.198 103.107 302.72 108.63 302.72H157.671C163.194 302.72 167.671 307.198 167.671 312.72V331.28C167.671 336.803 163.194 341.28 157.671 341.28H108.63C103.107 341.28 98.6301 336.803 98.6301 331.28V312.72ZM192.466 302.72C186.943 302.72 182.466 307.198 182.466 312.72V331.28C182.466 336.803 186.943 341.28 192.466 341.28H241.507C247.03 341.28 251.507 336.803 251.507 331.28V312.72C251.507 307.198 247.03 302.72 241.507 302.72H192.466ZM266.301 312.72C266.301 307.198 270.779 302.72 276.301 302.72H325.342C330.865 302.72 335.342 307.198 335.342 312.72V331.28C335.342 336.803 330.865 341.28 325.342 341.28H276.301C270.779 341.28 266.301 336.803 266.301 331.28V312.72ZM360.137 302.72C354.614 302.72 350.137 307.198 350.137 312.72V331.28C350.137 336.803 354.614 341.28 360.137 341.28H409.178C414.701 341.28 419.178 336.803 419.178 331.28V312.72C419.178 307.198 414.701 302.72 409.178 302.72H360.137ZM433.973 312.72C433.973 307.198 438.45 302.72 443.973 302.72H493.014C498.536 302.72 503.014 307.198 503.014 312.72V331.28C503.014 336.803 498.536 341.28 493.014 341.28H443.973C438.45 341.28 433.973 336.803 433.973 331.28V312.72ZM527.808 302.72C522.285 302.72 517.808 307.198 517.808 312.72V331.28C517.808 336.803 522.285 341.28 527.808 341.28H576.849C582.372 341.28 586.849 336.803 586.849 331.28V312.72C586.849 307.198 582.372 302.72 576.849 302.72H527.808ZM601.644 312.72C601.644 307.198 606.121 302.72 611.644 302.72H660.685C666.208 302.72 670.685 307.198 670.685 312.72V331.28C670.685 336.803 666.208 341.28 660.685 341.28H611.644C606.121 341.28 601.644 336.803 601.644 331.28V312.72ZM695.479 302.72C689.957 302.72 685.479 307.198 685.479 312.72V331.28C685.479 336.803 689.957 341.28 695.479 341.28H744.521C750.043 341.28 754.521 336.803 754.521 331.28V312.72C754.521 307.198 750.043 302.72 744.521 302.72H695.479ZM769.315 312.72C769.315 307.198 773.792 302.72 779.315 302.72H828.356C833.879 302.72 838.356 307.198 838.356 312.72V331.28C838.356 336.803 833.879 341.28 828.356 341.28H779.315C773.792 341.28 769.315 336.803 769.315 331.28V312.72ZM863.151 302.72C857.628 302.72 853.151 307.198 853.151 312.72V331.28C853.151 336.803 857.628 341.28 863.151 341.28H912.192C917.715 341.28 922.192 336.803 922.192 331.28V312.72C922.192 307.198 917.715 302.72 912.192 302.72H863.151ZM936.986 312.72C936.986 307.198 941.463 302.72 946.986 302.72H996.027C1001.55 302.72 1006.03 307.198 1006.03 312.72V331.28C1006.03 336.803 1001.55 341.28 996.027 341.28H946.986C941.463 341.28 936.986 336.803 936.986 331.28V312.72ZM1030.82 302.72C1025.3 302.72 1020.82 307.198 1020.82 312.72V331.28C1020.82 336.803 1025.3 341.28 1030.82 341.28H1079.86C1085.39 341.28 1089.86 336.803 1089.86 331.28V312.72C1089.86 307.198 1085.39 302.72 1079.86 302.72H1030.82ZM1104.66 312.72C1104.66 307.198 1109.13 302.72 1114.66 302.72H1163.7C1169.22 302.72 1173.7 307.198 1173.7 312.72V331.28C1173.7 336.803 1169.22 341.28 1163.7 341.28H1114.66C1109.13 341.28 1104.66 336.803 1104.66 331.28V312.72ZM1198.49 302.72C1192.97 302.72 1188.49 307.198 1188.49 312.72V331.28C1188.49 336.803 1192.97 341.28 1198.49 341.28H1247.53C1253.06 341.28 1257.53 336.803 1257.53 331.28V312.72C1257.53 307.198 1253.06 302.72 1247.53 302.72H1198.49ZM1272.33 312.72C1272.33 307.198 1276.81 302.72 1282.33 302.72H1331.37C1336.89 302.72 1341.37 307.198 1341.37 312.72V331.28C1341.37 336.803 1336.89 341.28 1331.37 341.28H1282.33C1276.81 341.28 1272.33 336.803 1272.33 331.28V312.72ZM1366.16 302.72C1360.64 302.72 1356.16 307.198 1356.16 312.72V331.28C1356.16 336.803 1360.64 341.28 1366.16 341.28H1415.21C1420.73 341.28 1425.21 336.803 1425.21 331.28V312.72C1425.21 307.198 1420.73 302.72 1415.21 302.72H1366.16Z" fill="#FECA91"/>
</svg>
