<?xml version="1.0" encoding="utf-8"?>
<!-- Generator: Adobe Illustrator 26.4.1, SVG Export Plug-In . SVG Version: 6.00 Build 0)  -->
<svg version="1.1" id="Layer_1" xmlns="http://www.w3.org/2000/svg" xmlns:xlink="http://www.w3.org/1999/xlink" x="0px" y="0px"
	 viewBox="0 0 610 475" style="enable-background:new 0 0 610 475;" xml:space="preserve">
<style type="text/css">
	.st0{fill:#C5C5C5;}
	.st1{fill:#FFB6B0;}
	.st2{fill:#464C4C;}
	.st3{fill:#252731;}
	.st4{fill:#191814;}
	.st5{fill:#FFFEF8;}
	.st6{fill:#020400;}
	.st7{fill:#0B0C00;}
</style>
<path class="st0" d="M219,2.4L219,2.4c1.6-1.3,3.9-1.1,5.2,0.4L368,173.8c1.3,1.6,1.1,3.9-0.4,5.2l0,0c-1.6,1.3-3.9,1.1-5.2-0.4
	L218.6,7.6C217.3,6,217.5,3.7,219,2.4z"/>
<path class="st0" d="M490.6,2.6L490.6,2.6c-1.4-1.5-3.8-1.5-5.2-0.1l-159.9,156c-1.5,1.4-1.5,3.8-0.1,5.2l0,0
	c1.4,1.5,3.8,1.5,5.2,0.1l159.9-156C492,6.4,492.1,4.1,490.6,2.6z"/>
<path class="st1" d="M40.4,110h529.1c22.1,0,40,17.9,40,40v284.7c0,22.1-17.9,40-40,40H40.4c-22.1,0-40-17.9-40-40V150
	C0.4,127.9,18.4,110,40.4,110z"/>
<circle class="st2" cx="500.2" cy="303.1" r="11.5"/>
<circle class="st2" cx="536.2" cy="305" r="11.5"/>
<circle class="st2" cx="575.9" cy="305" r="11.5"/>
<ellipse class="st3" cx="203.6" cy="451.7" rx="6.9" ry="6.9"/>
<ellipse class="st3" cx="299.3" cy="451.7" rx="6.9" ry="6.9"/>
<path class="st3" d="M233.6,445.7h36c3.6,0,6.5,2.9,6.5,6.5v0c0,3.6-2.9,6.5-6.5,6.5h-36c-3.6,0-6.5-2.9-6.5-6.5v0
	C227.1,448.6,230,445.7,233.6,445.7z"/>
<ellipse transform="matrix(0.9998 -1.979635e-02 1.979635e-02 0.9998 -3.2098 10.6107)" class="st4" cx="534.3" cy="167.4" rx="30.9" ry="30.9"/>
<path class="st5" d="M521.9,139.1l3.5-1.5c1-0.4,2.2,0,2.6,1l22.9,53c0.4,1,0,2.2-1,2.6l-3.5,1.5c-1,0.4-2.2,0-2.6-1l-22.9-53
	C520.4,140.7,520.9,139.6,521.9,139.1z"/>
<circle class="st4" cx="534.3" cy="241.2" r="30.9"/>
<path class="st5" d="M515.3,216.8l3-2.3c0.9-0.7,2.1-0.5,2.8,0.4l35,45.8c0.7,0.9,0.5,2.1-0.4,2.8l-3,2.3c-0.9,0.7-2.1,0.5-2.8-0.4
	l-35-45.8C514.3,218.7,514.5,217.4,515.3,216.8z"/>
<path class="st6" d="M491.4,335h95.1c1.5,0,2.8,1.2,2.8,2.8l0,0c0,1.5-1.2,2.8-2.8,2.8h-95.1c-1.5,0-2.8-1.2-2.8-2.8l0,0
	C488.6,336.2,489.9,335,491.4,335z"/>
<path class="st7" d="M491.4,350.6h95.1c1.5,0,2.8,1.2,2.8,2.8l0,0c0,1.5-1.2,2.8-2.8,2.8h-95.1c-1.5,0-2.8-1.2-2.8-2.8l0,0
	C488.6,351.9,489.9,350.6,491.4,350.6z"/>
<path class="st7" d="M491.4,366.3h95.1c1.5,0,2.8,1.2,2.8,2.8l0,0c0,1.5-1.2,2.8-2.8,2.8h-95.1c-1.5,0-2.8-1.2-2.8-2.8l0,0
	C488.6,367.6,489.9,366.3,491.4,366.3z"/>
<path class="st7" d="M491.4,394h95.1c1.5,0,2.8,1.2,2.8,2.8l0,0c0,1.5-1.2,2.8-2.8,2.8h-95.1c-1.5,0-2.8-1.2-2.8-2.8l0,0
	C488.6,395.3,489.9,394,491.4,394z"/>
<path class="st7" d="M491.4,411.6h95.1c1.5,0,2.8,1.2,2.8,2.8l0,0c0,1.5-1.2,2.8-2.8,2.8h-95.1c-1.5,0-2.8-1.2-2.8-2.8l0,0
	C488.6,412.8,489.9,411.6,491.4,411.6z"/>
<path class="st7" d="M491.4,427.3h95.1c1.5,0,2.8,1.2,2.8,2.8l0,0c0,1.5-1.2,2.8-2.8,2.8h-95.1c-1.5,0-2.8-1.2-2.8-2.8l0,0
	C488.6,428.5,489.9,427.3,491.4,427.3z"/>
</svg>
