<svg width="784" height="267" viewBox="0 0 784 267" fill="none" xmlns="http://www.w3.org/2000/svg">
<mask id="path-1-inside-1_624_756" fill="white">
<path d="M740.341 1.52643e-06H332.453C329.882 -0.00110485 327.375 0.599255 325.279 1.7177C323.183 2.83615 321.603 4.41716 320.758 6.24117C319.036 9.97516 315.808 13.2132 311.523 15.505C307.238 17.7967 302.109 19.0282 296.85 19.0282C291.59 19.0282 286.461 17.7967 282.176 15.505C277.891 13.2132 274.663 9.97516 272.942 6.24117C272.097 4.42403 270.524 2.84817 268.438 1.73049C266.353 0.612814 263.857 0.00824777 261.296 1.52643e-06H43.6911C43.6911 4.31042 42.5609 8.57861 40.3651 12.5608C38.1693 16.5431 34.951 20.1613 30.8938 23.209C26.8366 26.2566 22.02 28.6739 16.7192 30.3229C11.4184 31.9719 5.73721 32.8202 0 32.8194V234.181C5.73721 234.18 11.4184 235.028 16.7192 236.677C22.02 238.326 26.8366 240.743 30.8938 243.791C34.951 246.839 38.1693 250.457 40.3651 254.439C42.5609 258.421 43.6911 262.69 43.6911 267H261.296C263.866 267.002 266.374 266.402 268.47 265.283C270.566 264.165 272.146 262.583 272.99 260.759C274.712 257.025 277.94 253.787 282.225 251.495C286.51 249.203 291.639 247.972 296.898 247.972C302.158 247.972 307.287 249.203 311.572 251.495C315.857 253.787 319.085 257.025 320.806 260.759C321.65 262.576 323.223 264.153 325.309 265.271C327.395 266.388 329.89 266.993 332.453 267H740.317C740.317 262.69 741.447 258.422 743.642 254.441C745.837 250.459 749.055 246.841 753.112 243.793C757.168 240.746 761.983 238.328 767.283 236.679C772.583 235.03 778.263 234.181 784 234.181V32.8194C772.419 32.8145 761.314 29.3547 753.127 23.2004C744.94 17.0461 740.341 8.70108 740.341 1.52643e-06ZM294.775 28.5449C294.757 28.3284 294.798 28.1114 294.896 27.9073C294.994 27.7032 295.147 27.5163 295.345 27.3582C295.543 27.2001 295.781 27.0741 296.047 26.988C296.312 26.9018 296.597 26.8574 296.886 26.8574C297.175 26.8574 297.461 26.9018 297.726 26.988C297.991 27.0741 298.23 27.2001 298.427 27.3582C298.625 27.5163 298.778 27.7032 298.876 27.9073C298.974 28.1114 299.015 28.3284 298.997 28.5449V46.9396C299.015 47.1562 298.974 47.3732 298.876 47.5773C298.778 47.7814 298.625 47.9683 298.427 48.1264C298.23 48.2845 297.991 48.4105 297.726 48.4966C297.461 48.5827 297.175 48.6272 296.886 48.6272C296.597 48.6272 296.312 48.5827 296.047 48.4966C295.781 48.4105 295.543 48.2845 295.345 48.1264C295.147 47.9683 294.994 47.7814 294.896 47.5773C294.798 47.3732 294.757 47.1562 294.775 46.9396V28.5449ZM294.775 60.0491C294.757 59.8326 294.798 59.6155 294.896 59.4114C294.994 59.2073 295.147 59.0205 295.345 58.8624C295.543 58.7043 295.781 58.5783 296.047 58.4922C296.312 58.406 296.597 58.3616 296.886 58.3616C297.175 58.3616 297.461 58.406 297.726 58.4922C297.991 58.5783 298.23 58.7043 298.427 58.8624C298.625 59.0205 298.778 59.2073 298.876 59.4114C298.974 59.6155 299.015 59.8326 298.997 60.0491V78.4438C298.998 78.7572 298.875 79.0636 298.643 79.3243C298.412 79.585 298.082 79.7882 297.697 79.9082C297.312 80.0282 296.888 80.0595 296.478 79.9983C296.069 79.937 295.694 79.786 295.399 79.5642C295.201 79.4183 295.043 79.244 294.936 79.0515C294.829 78.8591 294.774 78.6524 294.775 78.4438V60.0491ZM294.775 91.5533C294.757 91.3367 294.798 91.1197 294.896 90.9156C294.994 90.7115 295.147 90.5247 295.345 90.3666C295.543 90.2085 295.781 90.0825 296.047 89.9963C296.312 89.9102 296.597 89.8658 296.886 89.8658C297.175 89.8658 297.461 89.9102 297.726 89.9963C297.991 90.0825 298.23 90.2085 298.427 90.3666C298.625 90.5247 298.778 90.7115 298.876 90.9156C298.974 91.1197 299.015 91.3367 298.997 91.5533V109.948C298.998 110.261 298.875 110.568 298.643 110.829C298.412 111.089 298.082 111.292 297.697 111.412C297.312 111.532 296.888 111.564 296.478 111.502C296.069 111.441 295.694 111.29 295.399 111.068C295.201 110.923 295.043 110.748 294.936 110.556C294.829 110.363 294.774 110.157 294.775 109.948V91.5533ZM294.775 123.057C294.775 122.636 294.998 122.232 295.395 121.934C295.791 121.636 296.329 121.468 296.89 121.468C297.168 121.467 297.443 121.509 297.699 121.589C297.955 121.67 298.187 121.788 298.381 121.937C298.577 122.084 298.733 122.259 298.838 122.451C298.944 122.643 298.998 122.849 298.997 123.057V141.452C298.995 141.872 298.773 142.273 298.378 142.57C297.983 142.866 297.448 143.034 296.89 143.035C296.332 143.032 295.798 142.865 295.402 142.568C295.006 142.272 294.781 141.872 294.775 141.452V123.057ZM294.775 154.562C294.757 154.345 294.798 154.128 294.896 153.924C294.994 153.72 295.147 153.533 295.345 153.375C295.543 153.217 295.781 153.091 296.047 153.005C296.312 152.919 296.597 152.874 296.886 152.874C297.175 152.874 297.461 152.919 297.726 153.005C297.991 153.091 298.23 153.217 298.427 153.375C298.625 153.533 298.778 153.72 298.876 153.924C298.974 154.128 299.015 154.345 298.997 154.562V172.956C298.998 173.27 298.875 173.576 298.643 173.837C298.412 174.098 298.082 174.301 297.697 174.421C297.312 174.541 296.888 174.572 296.478 174.511C296.069 174.45 295.694 174.298 295.399 174.077C295.201 173.931 295.043 173.757 294.936 173.564C294.829 173.372 294.774 173.165 294.775 172.956V154.562ZM298.997 235.959C298.997 236.379 298.776 236.782 298.381 237.08C297.986 237.378 297.45 237.546 296.89 237.548C296.331 237.545 295.795 237.376 295.399 237.079C295.003 236.781 294.779 236.379 294.775 235.959V217.564C294.757 217.347 294.798 217.13 294.896 216.926C294.994 216.722 295.147 216.535 295.345 216.377C295.543 216.219 295.781 216.093 296.047 216.007C296.312 215.921 296.597 215.876 296.886 215.876C297.175 215.876 297.461 215.921 297.726 216.007C297.991 216.093 298.23 216.219 298.427 216.377C298.625 216.535 298.778 216.722 298.876 216.926C298.974 217.13 299.015 217.347 298.997 217.564V235.959ZM298.997 204.461C298.998 204.774 298.875 205.08 298.643 205.341C298.412 205.602 298.082 205.805 297.697 205.925C297.312 206.045 296.888 206.076 296.478 206.015C296.069 205.954 295.694 205.803 295.399 205.581L295.334 205.532C294.976 205.24 294.777 204.858 294.775 204.461V186.066C294.775 185.752 294.899 185.445 295.131 185.184C295.363 184.923 295.692 184.72 296.078 184.599C296.464 184.479 296.889 184.447 297.298 184.507C297.708 184.568 298.085 184.718 298.381 184.939C298.749 185.215 298.966 185.585 298.989 185.975C298.993 186.005 298.993 186.035 298.989 186.066L298.997 204.461Z"/>
</mask>
<path d="M740.341 1.52643e-06H332.453C329.882 -0.00110485 327.375 0.599255 325.279 1.7177C323.183 2.83615 321.603 4.41716 320.758 6.24117C319.036 9.97516 315.808 13.2132 311.523 15.505C307.238 17.7967 302.109 19.0282 296.85 19.0282C291.59 19.0282 286.461 17.7967 282.176 15.505C277.891 13.2132 274.663 9.97516 272.942 6.24117C272.097 4.42403 270.524 2.84817 268.438 1.73049C266.353 0.612814 263.857 0.00824777 261.296 1.52643e-06H43.6911C43.6911 4.31042 42.5609 8.57861 40.3651 12.5608C38.1693 16.5431 34.951 20.1613 30.8938 23.209C26.8366 26.2566 22.02 28.6739 16.7192 30.3229C11.4184 31.9719 5.73721 32.8202 0 32.8194V234.181C5.73721 234.18 11.4184 235.028 16.7192 236.677C22.02 238.326 26.8366 240.743 30.8938 243.791C34.951 246.839 38.1693 250.457 40.3651 254.439C42.5609 258.421 43.6911 262.69 43.6911 267H261.296C263.866 267.002 266.374 266.402 268.47 265.283C270.566 264.165 272.146 262.583 272.99 260.759C274.712 257.025 277.94 253.787 282.225 251.495C286.51 249.203 291.639 247.972 296.898 247.972C302.158 247.972 307.287 249.203 311.572 251.495C315.857 253.787 319.085 257.025 320.806 260.759C321.65 262.576 323.223 264.153 325.309 265.271C327.395 266.388 329.89 266.993 332.453 267H740.317C740.317 262.69 741.447 258.422 743.642 254.441C745.837 250.459 749.055 246.841 753.112 243.793C757.168 240.746 761.983 238.328 767.283 236.679C772.583 235.03 778.263 234.181 784 234.181V32.8194C772.419 32.8145 761.314 29.3547 753.127 23.2004C744.94 17.0461 740.341 8.70108 740.341 1.52643e-06ZM294.775 28.5449C294.757 28.3284 294.798 28.1114 294.896 27.9073C294.994 27.7032 295.147 27.5163 295.345 27.3582C295.543 27.2001 295.781 27.0741 296.047 26.988C296.312 26.9018 296.597 26.8574 296.886 26.8574C297.175 26.8574 297.461 26.9018 297.726 26.988C297.991 27.0741 298.23 27.2001 298.427 27.3582C298.625 27.5163 298.778 27.7032 298.876 27.9073C298.974 28.1114 299.015 28.3284 298.997 28.5449V46.9396C299.015 47.1562 298.974 47.3732 298.876 47.5773C298.778 47.7814 298.625 47.9683 298.427 48.1264C298.23 48.2845 297.991 48.4105 297.726 48.4966C297.461 48.5827 297.175 48.6272 296.886 48.6272C296.597 48.6272 296.312 48.5827 296.047 48.4966C295.781 48.4105 295.543 48.2845 295.345 48.1264C295.147 47.9683 294.994 47.7814 294.896 47.5773C294.798 47.3732 294.757 47.1562 294.775 46.9396V28.5449ZM294.775 60.0491C294.757 59.8326 294.798 59.6155 294.896 59.4114C294.994 59.2073 295.147 59.0205 295.345 58.8624C295.543 58.7043 295.781 58.5783 296.047 58.4922C296.312 58.406 296.597 58.3616 296.886 58.3616C297.175 58.3616 297.461 58.406 297.726 58.4922C297.991 58.5783 298.23 58.7043 298.427 58.8624C298.625 59.0205 298.778 59.2073 298.876 59.4114C298.974 59.6155 299.015 59.8326 298.997 60.0491V78.4438C298.998 78.7572 298.875 79.0636 298.643 79.3243C298.412 79.585 298.082 79.7882 297.697 79.9082C297.312 80.0282 296.888 80.0595 296.478 79.9983C296.069 79.937 295.694 79.786 295.399 79.5642C295.201 79.4183 295.043 79.244 294.936 79.0515C294.829 78.8591 294.774 78.6524 294.775 78.4438V60.0491ZM294.775 91.5533C294.757 91.3367 294.798 91.1197 294.896 90.9156C294.994 90.7115 295.147 90.5247 295.345 90.3666C295.543 90.2085 295.781 90.0825 296.047 89.9963C296.312 89.9102 296.597 89.8658 296.886 89.8658C297.175 89.8658 297.461 89.9102 297.726 89.9963C297.991 90.0825 298.23 90.2085 298.427 90.3666C298.625 90.5247 298.778 90.7115 298.876 90.9156C298.974 91.1197 299.015 91.3367 298.997 91.5533V109.948C298.998 110.261 298.875 110.568 298.643 110.829C298.412 111.089 298.082 111.292 297.697 111.412C297.312 111.532 296.888 111.564 296.478 111.502C296.069 111.441 295.694 111.29 295.399 111.068C295.201 110.923 295.043 110.748 294.936 110.556C294.829 110.363 294.774 110.157 294.775 109.948V91.5533ZM294.775 123.057C294.775 122.636 294.998 122.232 295.395 121.934C295.791 121.636 296.329 121.468 296.89 121.468C297.168 121.467 297.443 121.509 297.699 121.589C297.955 121.67 298.187 121.788 298.381 121.937C298.577 122.084 298.733 122.259 298.838 122.451C298.944 122.643 298.998 122.849 298.997 123.057V141.452C298.995 141.872 298.773 142.273 298.378 142.57C297.983 142.866 297.448 143.034 296.89 143.035C296.332 143.032 295.798 142.865 295.402 142.568C295.006 142.272 294.781 141.872 294.775 141.452V123.057ZM294.775 154.562C294.757 154.345 294.798 154.128 294.896 153.924C294.994 153.72 295.147 153.533 295.345 153.375C295.543 153.217 295.781 153.091 296.047 153.005C296.312 152.919 296.597 152.874 296.886 152.874C297.175 152.874 297.461 152.919 297.726 153.005C297.991 153.091 298.23 153.217 298.427 153.375C298.625 153.533 298.778 153.72 298.876 153.924C298.974 154.128 299.015 154.345 298.997 154.562V172.956C298.998 173.27 298.875 173.576 298.643 173.837C298.412 174.098 298.082 174.301 297.697 174.421C297.312 174.541 296.888 174.572 296.478 174.511C296.069 174.45 295.694 174.298 295.399 174.077C295.201 173.931 295.043 173.757 294.936 173.564C294.829 173.372 294.774 173.165 294.775 172.956V154.562ZM298.997 235.959C298.997 236.379 298.776 236.782 298.381 237.08C297.986 237.378 297.45 237.546 296.89 237.548C296.331 237.545 295.795 237.376 295.399 237.079C295.003 236.781 294.779 236.379 294.775 235.959V217.564C294.757 217.347 294.798 217.13 294.896 216.926C294.994 216.722 295.147 216.535 295.345 216.377C295.543 216.219 295.781 216.093 296.047 216.007C296.312 215.921 296.597 215.876 296.886 215.876C297.175 215.876 297.461 215.921 297.726 216.007C297.991 216.093 298.23 216.219 298.427 216.377C298.625 216.535 298.778 216.722 298.876 216.926C298.974 217.13 299.015 217.347 298.997 217.564V235.959ZM298.997 204.461C298.998 204.774 298.875 205.08 298.643 205.341C298.412 205.602 298.082 205.805 297.697 205.925C297.312 206.045 296.888 206.076 296.478 206.015C296.069 205.954 295.694 205.803 295.399 205.581L295.334 205.532C294.976 205.24 294.777 204.858 294.775 204.461V186.066C294.775 185.752 294.899 185.445 295.131 185.184C295.363 184.923 295.692 184.72 296.078 184.599C296.464 184.479 296.889 184.447 297.298 184.507C297.708 184.568 298.085 184.718 298.381 184.939C298.749 185.215 298.966 185.585 298.989 185.975C298.993 186.005 298.993 186.035 298.989 186.066L298.997 204.461Z" fill="black" fill-opacity="0.7" stroke="white" stroke-width="10" mask="url(#path-1-inside-1_624_756)"/>
</svg>
