<svg width="610" height="90" viewBox="0 0 610 90" fill="none" xmlns="http://www.w3.org/2000/svg">
<circle cx="45" cy="45" r="45" fill="#EA9F95"/>
<path fill-rule="evenodd" clip-rule="evenodd" d="M34.6932 21.15C37.3591 21.0273 38.2091 21 45 21C51.7909 21 52.6409 21.0295 55.3045 21.15C57.9682 21.2705 59.7864 21.6955 61.3773 22.3114C63.0432 22.9409 64.5545 23.925 65.8045 25.1977C67.0773 26.4455 68.0591 27.9545 68.6864 29.6227C69.3045 31.2136 69.7273 33.0318 69.85 35.6909C69.9727 38.3614 70 39.2114 70 46C70 52.7909 69.9705 53.6409 69.85 56.3068C69.7295 58.9659 69.3045 60.7841 68.6864 62.375C68.0591 64.0434 67.0756 65.555 65.8045 66.8045C64.5545 68.0773 63.0432 69.0591 61.3773 69.6864C59.7864 70.3045 57.9682 70.7273 55.3091 70.85C52.6409 70.9727 51.7909 71 45 71C38.2091 71 37.3591 70.9705 34.6932 70.85C32.0341 70.7295 30.2159 70.3045 28.625 69.6864C26.9566 69.059 25.445 68.0756 24.1955 66.8045C22.9236 65.5561 21.9394 64.0452 21.3114 62.3773C20.6955 60.7864 20.2727 58.9682 20.15 56.3091C20.0273 53.6386 20 52.7886 20 46C20 39.2091 20.0295 38.3591 20.15 35.6955C20.2705 33.0318 20.6955 31.2136 21.3114 29.6227C21.9403 27.9547 22.9253 26.4439 24.1977 25.1955C25.4455 23.9239 26.9556 22.9396 28.6227 22.3114C30.2136 21.6955 32.0318 21.2727 34.6909 21.15H34.6932ZM55.1023 25.65C52.4659 25.5295 51.675 25.5045 45 25.5045C38.325 25.5045 37.5341 25.5295 34.8977 25.65C32.4591 25.7614 31.1364 26.1682 30.2545 26.5114C29.0886 26.9659 28.2545 27.5045 27.3795 28.3795C26.5501 29.1865 25.9118 30.1688 25.5114 31.2545C25.1682 32.1364 24.7614 33.4591 24.65 35.8977C24.5295 38.5341 24.5045 39.325 24.5045 46C24.5045 52.675 24.5295 53.4659 24.65 56.1023C24.7614 58.5409 25.1682 59.8636 25.5114 60.7455C25.9114 61.8295 26.55 62.8136 27.3795 63.6205C28.1864 64.45 29.1705 65.0886 30.2545 65.4886C31.1364 65.8318 32.4591 66.2386 34.8977 66.35C37.5341 66.4705 38.3227 66.4955 45 66.4955C51.6773 66.4955 52.4659 66.4705 55.1023 66.35C57.5409 66.2386 58.8636 65.8318 59.7455 65.4886C60.9114 65.0341 61.7455 64.4955 62.6205 63.6205C63.45 62.8136 64.0886 61.8295 64.4886 60.7455C64.8318 59.8636 65.2386 58.5409 65.35 56.1023C65.4705 53.4659 65.4955 52.675 65.4955 46C65.4955 39.325 65.4705 38.5341 65.35 35.8977C65.2386 33.4591 64.8318 32.1364 64.4886 31.2545C64.0341 30.0886 63.4955 29.2545 62.6205 28.3795C61.8135 27.5502 60.8311 26.9118 59.7455 26.5114C58.8636 26.1682 57.5409 25.7614 55.1023 25.65ZM41.8068 53.7068C43.5901 54.4492 45.5759 54.5494 47.4248 53.9903C49.2738 53.4312 50.8713 52.2475 51.9446 50.6415C53.0178 49.0354 53.5001 47.1065 53.3092 45.1843C53.1183 43.2621 52.2659 41.4658 50.8977 40.1023C50.0255 39.2306 48.9709 38.5632 47.8098 38.1481C46.6488 37.7329 45.4101 37.5804 44.1829 37.7014C42.9558 37.8224 41.7708 38.214 40.7132 38.848C39.6556 39.482 38.7517 40.3426 38.0666 41.3678C37.3815 42.3931 36.9322 43.5575 36.7512 44.7772C36.5701 45.9969 36.6617 47.2416 37.0194 48.4216C37.3771 49.6017 37.992 50.6877 38.8198 51.6016C39.6476 52.5155 40.6678 53.2345 41.8068 53.7068ZM35.9136 36.9136C37.1069 35.7204 38.5235 34.7739 40.0825 34.1281C41.6415 33.4823 43.3125 33.1499 45 33.1499C46.6875 33.1499 48.3585 33.4823 49.9175 34.1281C51.4765 34.7739 52.8931 35.7204 54.0864 36.9136C55.2796 38.1069 56.2261 39.5235 56.8719 41.0825C57.5177 42.6415 57.8501 44.3125 57.8501 46C57.8501 47.6875 57.5177 49.3585 56.8719 50.9175C56.2261 52.4765 55.2796 53.8931 54.0864 55.0864C51.6765 57.4962 48.408 58.8501 45 58.8501C41.592 58.8501 38.3235 57.4962 35.9136 55.0864C33.5038 52.6765 32.1499 49.408 32.1499 46C32.1499 42.592 33.5038 39.3235 35.9136 36.9136ZM60.7 35.0636C60.9957 34.7847 61.2324 34.4493 61.3961 34.0772C61.5599 33.7052 61.6473 33.304 61.6532 32.8976C61.6591 32.4911 61.5835 32.0876 61.4306 31.7109C61.2778 31.3343 61.051 30.9921 60.7635 30.7046C60.4761 30.4172 60.1339 30.1904 59.7573 30.0375C59.3806 29.8847 58.9771 29.809 58.5706 29.815C58.1642 29.8209 57.763 29.9083 57.391 30.072C57.0189 30.2358 56.6835 30.4725 56.4045 30.7682C55.8621 31.3432 55.5651 32.1071 55.5766 32.8976C55.5881 33.688 55.9073 34.4429 56.4663 35.0019C57.0253 35.5609 57.7801 35.8801 58.5706 35.8916C59.3611 35.9031 60.1249 35.6061 60.7 35.0636Z" fill="#682E26"/>
<rect x="110" y="2" width="500" height="88" rx="44" fill="#CBEDFD"/>
<path d="M169.58 44.96C169.153 44.88 168.713 44.84 168.26 44.84C167.433 44.84 166.66 45.02 165.94 45.38C165.22 45.74 164.593 46.2267 164.06 46.84C163.54 47.4533 163.127 48.16 162.82 48.96C162.513 49.7467 162.36 50.5667 162.36 51.42C162.36 52.2733 162.54 52.94 162.9 53.42C163.273 53.8867 163.813 54.12 164.52 54.12C164.867 54.12 165.213 54.0667 165.56 53.96C165.92 53.8533 166.26 53.6667 166.58 53.4C166.9 53.12 167.193 52.7533 167.46 52.3C167.727 51.8467 167.947 51.28 168.12 50.6L169.58 44.96ZM171.92 50.08C171.707 50.9333 171.6 51.6333 171.6 52.18C171.613 52.7133 171.7 53.14 171.86 53.46C172.02 53.7667 172.247 53.98 172.54 54.1C172.833 54.22 173.167 54.28 173.54 54.28C174.1 54.28 174.627 54.1067 175.12 53.76C175.627 53.4 176.067 52.9 176.44 52.26C176.813 51.62 177.107 50.86 177.32 49.98C177.547 49.1 177.66 48.14 177.66 47.1C177.66 45.3667 177.387 43.84 176.84 42.52C176.307 41.2 175.553 40.1 174.58 39.22C173.607 38.3267 172.447 37.66 171.1 37.22C169.767 36.7667 168.3 36.54 166.7 36.54C164.94 36.54 163.313 36.8733 161.82 37.54C160.327 38.1933 159.027 39.0933 157.92 40.24C156.827 41.3867 155.967 42.74 155.34 44.3C154.727 45.86 154.42 47.54 154.42 49.34C154.42 51.5267 154.76 53.4533 155.44 55.12C156.12 56.7733 157.053 58.16 158.24 59.28C159.427 60.3867 160.82 61.22 162.42 61.78C164.033 62.34 165.773 62.62 167.64 62.62C168.667 62.62 169.627 62.56 170.52 62.44C171.413 62.3333 172.233 62.18 172.98 61.98C173.727 61.7933 174.407 61.5733 175.02 61.32C175.633 61.08 176.18 60.82 176.66 60.54C177.007 60.34 177.313 60.28 177.58 60.36C177.847 60.44 178.04 60.64 178.16 60.96L178.84 62.74C177.453 63.6467 175.833 64.3867 173.98 64.96C172.127 65.5333 170.013 65.82 167.64 65.82C165.227 65.82 162.993 65.44 160.94 64.68C158.887 63.92 157.107 62.8267 155.6 61.4C154.107 59.9867 152.933 58.26 152.08 56.22C151.24 54.18 150.82 51.8867 150.82 49.34C150.82 47.9133 151 46.5267 151.36 45.18C151.733 43.8333 152.26 42.5733 152.94 41.4C153.62 40.2133 154.44 39.1267 155.4 38.14C156.36 37.1533 157.427 36.3067 158.6 35.6C159.773 34.8933 161.04 34.3467 162.4 33.96C163.773 33.56 165.207 33.36 166.7 33.36C168.593 33.36 170.407 33.68 172.14 34.32C173.887 34.9467 175.427 35.8533 176.76 37.04C178.107 38.2133 179.18 39.6533 179.98 41.36C180.78 43.0533 181.18 44.9667 181.18 47.1C181.18 48.5267 180.967 49.8667 180.54 51.12C180.127 52.36 179.54 53.44 178.78 54.36C178.033 55.28 177.147 56.0067 176.12 56.54C175.107 57.06 174 57.32 172.8 57.32C171.88 57.32 171.067 57.1067 170.36 56.68C169.653 56.2533 169.167 55.5667 168.9 54.62C168.113 55.58 167.28 56.2667 166.4 56.68C165.52 57.0933 164.567 57.3 163.54 57.3C162.7 57.3 161.967 57.1533 161.34 56.86C160.727 56.5667 160.207 56.1667 159.78 55.66C159.367 55.14 159.053 54.5333 158.84 53.84C158.64 53.1333 158.54 52.3667 158.54 51.54C158.54 50.78 158.633 50.0133 158.82 49.24C159.02 48.4533 159.313 47.7 159.7 46.98C160.087 46.2467 160.567 45.5667 161.14 44.94C161.727 44.3 162.407 43.7467 163.18 43.28C163.967 42.8 164.847 42.4267 165.82 42.16C166.807 41.88 167.887 41.74 169.06 41.74C170.1 41.74 170.987 41.82 171.72 41.98C172.453 42.14 173.16 42.3667 173.84 42.66L171.92 50.08ZM190.13 55.68C190.69 56.36 191.297 56.84 191.95 57.12C192.617 57.4 193.337 57.54 194.11 57.54C194.857 57.54 195.53 57.4 196.13 57.12C196.73 56.84 197.237 56.4133 197.65 55.84C198.077 55.2667 198.403 54.5467 198.63 53.68C198.857 52.8 198.97 51.7667 198.97 50.58C198.97 49.38 198.87 48.3667 198.67 47.54C198.483 46.7 198.21 46.02 197.85 45.5C197.49 44.98 197.05 44.6 196.53 44.36C196.023 44.12 195.443 44 194.79 44C193.763 44 192.89 44.22 192.17 44.66C191.45 45.0867 190.77 45.6933 190.13 46.48V55.68ZM189.87 43.28C190.71 42.3333 191.663 41.5667 192.73 40.98C193.797 40.3933 195.05 40.1 196.49 40.1C197.61 40.1 198.63 40.3333 199.55 40.8C200.483 41.2667 201.283 41.9467 201.95 42.84C202.63 43.72 203.15 44.8133 203.51 46.12C203.883 47.4133 204.07 48.9 204.07 50.58C204.07 52.1133 203.863 53.5333 203.45 54.84C203.037 56.1467 202.443 57.28 201.67 58.24C200.91 59.2 199.983 59.9533 198.89 60.5C197.81 61.0333 196.597 61.3 195.25 61.3C194.103 61.3 193.123 61.1267 192.31 60.78C191.497 60.42 190.77 59.9267 190.13 59.3V67.7H185.19V40.48H188.21C188.85 40.48 189.27 40.78 189.47 41.38L189.87 43.28ZM213.044 40.48V61H208.084V40.48H213.044ZM213.724 34.5C213.724 34.9267 213.638 35.3267 213.464 35.7C213.291 36.0733 213.058 36.4 212.764 36.68C212.484 36.96 212.151 37.1867 211.764 37.36C211.378 37.52 210.964 37.6 210.524 37.6C210.098 37.6 209.691 37.52 209.304 37.36C208.931 37.1867 208.604 36.96 208.324 36.68C208.044 36.4 207.818 36.0733 207.644 35.7C207.484 35.3267 207.404 34.9267 207.404 34.5C207.404 34.06 207.484 33.6467 207.644 33.26C207.818 32.8733 208.044 32.54 208.324 32.26C208.604 31.98 208.931 31.76 209.304 31.6C209.691 31.4267 210.098 31.34 210.524 31.34C210.964 31.34 211.378 31.4267 211.764 31.6C212.151 31.76 212.484 31.98 212.764 32.26C213.058 32.54 213.291 32.8733 213.464 33.26C213.638 33.6467 213.724 34.06 213.724 34.5ZM222.701 43C223.114 42.5867 223.547 42.2067 224.001 41.86C224.467 41.5 224.954 41.2 225.461 40.96C225.981 40.7067 226.534 40.5133 227.121 40.38C227.707 40.2333 228.347 40.16 229.041 40.16C230.161 40.16 231.154 40.3533 232.021 40.74C232.887 41.1133 233.607 41.6467 234.181 42.34C234.767 43.02 235.207 43.84 235.501 44.8C235.807 45.7467 235.961 46.7933 235.961 47.94V61H231.021V47.94C231.021 46.6867 230.734 45.72 230.161 45.04C229.587 44.3467 228.714 44 227.541 44C226.687 44 225.887 44.1933 225.141 44.58C224.394 44.9667 223.687 45.4933 223.021 46.16V61H218.081V40.48H221.101C221.741 40.48 222.161 40.78 222.361 41.38L222.701 43ZM247.225 61.32C245.439 61.32 244.065 60.82 243.105 59.82C242.159 58.8067 241.685 57.4133 241.685 55.64V44.18H239.585C239.319 44.18 239.092 44.0933 238.905 43.92C238.719 43.7467 238.625 43.4867 238.625 43.14V41.18L241.925 40.64L242.965 35.04C243.032 34.7733 243.159 34.5667 243.345 34.42C243.532 34.2733 243.772 34.2 244.065 34.2H246.625V40.66H252.105V44.18H246.625V55.3C246.625 55.94 246.779 56.44 247.085 56.8C247.405 57.16 247.839 57.34 248.385 57.34C248.692 57.34 248.945 57.3067 249.145 57.24C249.359 57.16 249.539 57.08 249.685 57C249.845 56.92 249.985 56.8467 250.105 56.78C250.225 56.7 250.345 56.66 250.465 56.66C250.612 56.66 250.732 56.7 250.825 56.78C250.919 56.8467 251.019 56.9533 251.125 57.1L252.605 59.5C251.885 60.1 251.059 60.5533 250.125 60.86C249.192 61.1667 248.225 61.32 247.225 61.32ZM272.948 40.48V61H269.928C269.275 61 268.861 60.7 268.688 60.1L268.348 58.46C267.508 59.3133 266.581 60.0067 265.568 60.54C264.555 61.06 263.361 61.32 261.988 61.32C260.868 61.32 259.875 61.1333 259.008 60.76C258.155 60.3733 257.435 59.8333 256.848 59.14C256.261 58.4467 255.815 57.6267 255.508 56.68C255.215 55.72 255.068 54.6667 255.068 53.52V40.48H260.008V53.52C260.008 54.7733 260.295 55.7467 260.868 56.44C261.455 57.12 262.328 57.46 263.488 57.46C264.341 57.46 265.141 57.2733 265.888 56.9C266.635 56.5133 267.341 55.9867 268.008 55.32V40.48H272.948ZM285.346 50.24C285.96 50.24 286.493 50.16 286.946 50C287.4 49.8267 287.773 49.5933 288.066 49.3C288.373 49.0067 288.6 48.6533 288.746 48.24C288.906 47.8267 288.986 47.3733 288.986 46.88C288.986 45.8667 288.68 45.0667 288.066 44.48C287.466 43.88 286.56 43.58 285.346 43.58C284.133 43.58 283.22 43.88 282.606 44.48C282.006 45.0667 281.706 45.8667 281.706 46.88C281.706 47.36 281.78 47.8067 281.926 48.22C282.086 48.6333 282.313 48.9933 282.606 49.3C282.913 49.5933 283.293 49.8267 283.746 50C284.213 50.16 284.746 50.24 285.346 50.24ZM290.926 61.92C290.926 61.52 290.806 61.1933 290.566 60.94C290.326 60.6867 290 60.4933 289.586 60.36C289.173 60.2133 288.686 60.1067 288.126 60.04C287.58 59.9733 286.993 59.9267 286.366 59.9C285.753 59.86 285.113 59.8267 284.446 59.8C283.793 59.7733 283.153 59.72 282.526 59.64C281.98 59.9467 281.533 60.3067 281.186 60.72C280.853 61.1333 280.686 61.6133 280.686 62.16C280.686 62.52 280.773 62.8533 280.946 63.16C281.133 63.48 281.42 63.7533 281.806 63.98C282.206 64.2067 282.72 64.38 283.346 64.5C283.973 64.6333 284.74 64.7 285.646 64.7C286.566 64.7 287.36 64.6267 288.026 64.48C288.693 64.3467 289.24 64.1533 289.666 63.9C290.106 63.66 290.426 63.3667 290.626 63.02C290.826 62.6867 290.926 62.32 290.926 61.92ZM295.846 41.18V43.02C295.846 43.6067 295.493 43.9667 294.786 44.1L292.946 44.44C293.226 45.1467 293.366 45.92 293.366 46.76C293.366 47.7733 293.16 48.6933 292.746 49.52C292.346 50.3333 291.786 51.0267 291.066 51.6C290.346 52.1733 289.493 52.62 288.506 52.94C287.533 53.2467 286.48 53.4 285.346 53.4C284.946 53.4 284.56 53.38 284.186 53.34C283.813 53.3 283.446 53.2467 283.086 53.18C282.446 53.5667 282.126 54 282.126 54.48C282.126 54.8933 282.313 55.2 282.686 55.4C283.073 55.5867 283.58 55.72 284.206 55.8C284.833 55.88 285.546 55.9333 286.346 55.96C287.146 55.9733 287.966 56.0133 288.806 56.08C289.646 56.1467 290.466 56.2667 291.266 56.44C292.066 56.6 292.78 56.86 293.406 57.22C294.033 57.58 294.533 58.0733 294.906 58.7C295.293 59.3133 295.486 60.1067 295.486 61.08C295.486 61.9867 295.26 62.8667 294.806 63.72C294.366 64.5733 293.72 65.3333 292.866 66C292.026 66.6667 290.986 67.2 289.746 67.6C288.52 68.0133 287.12 68.22 285.546 68.22C284 68.22 282.653 68.0667 281.506 67.76C280.36 67.4667 279.406 67.0667 278.646 66.56C277.886 66.0667 277.32 65.4933 276.946 64.84C276.573 64.1867 276.386 63.5067 276.386 62.8C276.386 61.84 276.673 61.04 277.246 60.4C277.833 59.7467 278.633 59.2267 279.646 58.84C279.1 58.56 278.666 58.1867 278.346 57.72C278.026 57.2533 277.866 56.64 277.866 55.88C277.866 55.5733 277.92 55.26 278.026 54.94C278.146 54.6067 278.313 54.28 278.526 53.96C278.753 53.64 279.033 53.34 279.366 53.06C279.7 52.7667 280.093 52.5067 280.546 52.28C279.506 51.72 278.686 50.9733 278.086 50.04C277.5 49.1067 277.206 48.0133 277.206 46.76C277.206 45.7467 277.406 44.8333 277.806 44.02C278.22 43.1933 278.786 42.4933 279.506 41.92C280.24 41.3333 281.1 40.8867 282.086 40.58C283.086 40.2733 284.173 40.12 285.346 40.12C286.226 40.12 287.053 40.2133 287.826 40.4C288.6 40.5733 289.306 40.8333 289.946 41.18H295.846ZM305.819 61.32C304.032 61.32 302.659 60.82 301.699 59.82C300.752 58.8067 300.279 57.4133 300.279 55.64V44.18H298.179C297.912 44.18 297.686 44.0933 297.499 43.92C297.312 43.7467 297.219 43.4867 297.219 43.14V41.18L300.519 40.64L301.559 35.04C301.626 34.7733 301.752 34.5667 301.939 34.42C302.126 34.2733 302.366 34.2 302.659 34.2H305.219V40.66H310.699V44.18H305.219V55.3C305.219 55.94 305.372 56.44 305.679 56.8C305.999 57.16 306.432 57.34 306.979 57.34C307.286 57.34 307.539 57.3067 307.739 57.24C307.952 57.16 308.132 57.08 308.279 57C308.439 56.92 308.579 56.8467 308.699 56.78C308.819 56.7 308.939 56.66 309.059 56.66C309.206 56.66 309.326 56.7 309.419 56.78C309.512 56.8467 309.612 56.9533 309.719 57.1L311.199 59.5C310.479 60.1 309.652 60.5533 308.719 60.86C307.786 61.1667 306.819 61.32 305.819 61.32ZM326.742 45.72C326.182 45.04 325.569 44.56 324.902 44.28C324.249 44 323.542 43.86 322.782 43.86C322.035 43.86 321.362 44 320.762 44.28C320.162 44.56 319.649 44.9867 319.222 45.56C318.795 46.12 318.469 46.84 318.242 47.72C318.015 48.5867 317.902 49.6133 317.902 50.8C317.902 52 317.995 53.02 318.182 53.86C318.382 54.6867 318.662 55.3667 319.022 55.9C319.382 56.42 319.822 56.8 320.342 57.04C320.862 57.2667 321.442 57.38 322.082 57.38C323.109 57.38 323.982 57.1667 324.702 56.74C325.422 56.3133 326.102 55.7067 326.742 54.92V45.72ZM331.682 31.28V61H328.662C328.009 61 327.595 60.7 327.422 60.1L327.002 58.12C326.175 59.0667 325.222 59.8333 324.142 60.42C323.075 61.0067 321.829 61.3 320.402 61.3C319.282 61.3 318.255 61.0667 317.322 60.6C316.389 60.1333 315.582 59.46 314.902 58.58C314.235 57.6867 313.715 56.5867 313.342 55.28C312.982 53.9733 312.802 52.48 312.802 50.8C312.802 49.28 313.009 47.8667 313.422 46.56C313.835 45.2533 314.429 44.12 315.202 43.16C315.975 42.2 316.902 41.4533 317.982 40.92C319.062 40.3733 320.275 40.1 321.622 40.1C322.769 40.1 323.749 40.28 324.562 40.64C325.375 41 326.102 41.4867 326.742 42.1V31.28H331.682Z" fill="#2D5F77"/>
</svg>
