<svg width="615" height="90" viewBox="0 0 615 90" fill="none" xmlns="http://www.w3.org/2000/svg">
<circle cx="45" cy="45" r="45" fill="#D0F29F"/>
<path fill-rule="evenodd" clip-rule="evenodd" d="M20 24.1773C20 23.0694 20.4401 22.0069 21.2235 21.2235C22.0069 20.4401 23.0694 20 24.1773 20H65.8182C66.3672 19.9991 66.911 20.1065 67.4185 20.3161C67.926 20.5256 68.3871 20.8332 68.7756 21.2212C69.164 21.6092 69.4721 22.0701 69.6822 22.5773C69.8923 23.0845 70.0003 23.6282 70 24.1773V65.8182C70.0006 66.3673 69.8929 66.9112 69.6831 67.4187C69.4733 67.9262 69.1655 68.3873 68.7773 68.7757C68.3891 69.1641 67.9281 69.4722 67.4208 69.6822C66.9134 69.8923 66.3696 70.0003 65.8204 70H24.1773C23.6285 70 23.0851 69.8919 22.5782 69.6818C22.0712 69.4717 21.6106 69.1638 21.2227 68.7757C20.8348 68.3876 20.5271 67.9268 20.3173 67.4197C20.1075 66.9127 19.9997 66.3692 20 65.8205V24.1773ZM39.7909 39.0636H46.5614V42.4636C47.5386 40.5091 50.0386 38.75 53.7955 38.75C60.9977 38.75 62.7045 42.6432 62.7045 49.7864V63.0182H55.4159V51.4136C55.4159 47.3455 54.4386 45.05 51.9568 45.05C48.5136 45.05 47.0818 47.525 47.0818 51.4136V63.0182H39.7909V39.0636ZM27.2909 62.7068H34.5818V38.75H27.2909V62.7045V62.7068ZM35.625 30.9364C35.6387 31.5606 35.5277 32.1813 35.2983 32.7621C35.0689 33.3428 34.7258 33.8719 34.2892 34.3183C33.8525 34.7646 33.3311 35.1193 32.7556 35.3614C32.18 35.6035 31.5619 35.7282 30.9375 35.7282C30.3131 35.7282 29.695 35.6035 29.1194 35.3614C28.5439 35.1193 28.0225 34.7646 27.5858 34.3183C27.1492 33.8719 26.8061 33.3428 26.5767 32.7621C26.3473 32.1813 26.2363 31.5606 26.25 30.9364C26.277 29.711 26.7827 28.545 27.6588 27.6879C28.535 26.8309 29.7119 26.351 30.9375 26.351C32.1631 26.351 33.34 26.8309 34.2162 27.6879C35.0923 28.545 35.598 29.711 35.625 30.9364Z" fill="#2F5101"/>
<rect x="115" width="500" height="88" rx="44" fill="#E4CAE6"/>
<path d="M169.295 44.125V52.9C168.195 53.71 167.02 54.305 165.77 54.685C164.53 55.055 163.2 55.24 161.78 55.24C160.01 55.24 158.405 54.965 156.965 54.415C155.535 53.865 154.31 53.1 153.29 52.12C152.28 51.14 151.5 49.97 150.95 48.61C150.4 47.25 150.125 45.765 150.125 44.155C150.125 42.525 150.39 41.03 150.92 39.67C151.45 38.31 152.2 37.14 153.17 36.16C154.15 35.18 155.335 34.42 156.725 33.88C158.115 33.34 159.675 33.07 161.405 33.07C162.285 33.07 163.105 33.14 163.865 33.28C164.635 33.42 165.345 33.615 165.995 33.865C166.655 34.105 167.255 34.4 167.795 34.75C168.335 35.1 168.83 35.485 169.28 35.905L168.125 37.735C167.945 38.025 167.71 38.205 167.42 38.275C167.13 38.335 166.815 38.26 166.475 38.05C166.145 37.86 165.815 37.67 165.485 37.48C165.155 37.29 164.785 37.125 164.375 36.985C163.975 36.845 163.52 36.73 163.01 36.64C162.51 36.55 161.93 36.505 161.27 36.505C160.2 36.505 159.23 36.685 158.36 37.045C157.5 37.405 156.765 37.92 156.155 38.59C155.545 39.26 155.075 40.065 154.745 41.005C154.415 41.945 154.25 42.995 154.25 44.155C154.25 45.395 154.425 46.505 154.775 47.485C155.135 48.455 155.635 49.28 156.275 49.96C156.925 50.63 157.705 51.145 158.615 51.505C159.525 51.855 160.54 52.03 161.66 52.03C162.46 52.03 163.175 51.945 163.805 51.775C164.435 51.605 165.05 51.375 165.65 51.085V47.155H162.92C162.66 47.155 162.455 47.085 162.305 46.945C162.165 46.795 162.095 46.615 162.095 46.405V44.125H169.295ZM182.337 45.535C182.337 45.055 182.267 44.605 182.127 44.185C181.997 43.755 181.797 43.38 181.527 43.06C181.257 42.74 180.912 42.49 180.492 42.31C180.082 42.12 179.602 42.025 179.052 42.025C177.982 42.025 177.137 42.33 176.517 42.94C175.907 43.55 175.517 44.415 175.347 45.535H182.337ZM175.272 47.77C175.332 48.56 175.472 49.245 175.692 49.825C175.912 50.395 176.202 50.87 176.562 51.25C176.922 51.62 177.347 51.9 177.837 52.09C178.337 52.27 178.887 52.36 179.487 52.36C180.087 52.36 180.602 52.29 181.032 52.15C181.472 52.01 181.852 51.855 182.172 51.685C182.502 51.515 182.787 51.36 183.027 51.22C183.277 51.08 183.517 51.01 183.747 51.01C184.057 51.01 184.287 51.125 184.437 51.355L185.502 52.705C185.092 53.185 184.632 53.59 184.122 53.92C183.612 54.24 183.077 54.5 182.517 54.7C181.967 54.89 181.402 55.025 180.822 55.105C180.252 55.185 179.697 55.225 179.157 55.225C178.087 55.225 177.092 55.05 176.172 54.7C175.252 54.34 174.452 53.815 173.772 53.125C173.092 52.425 172.557 51.565 172.167 50.545C171.777 49.515 171.582 48.325 171.582 46.975C171.582 45.925 171.752 44.94 172.092 44.02C172.432 43.09 172.917 42.285 173.547 41.605C174.187 40.915 174.962 40.37 175.872 39.97C176.792 39.57 177.827 39.37 178.977 39.37C179.947 39.37 180.842 39.525 181.662 39.835C182.482 40.145 183.187 40.6 183.777 41.2C184.367 41.79 184.827 42.52 185.157 43.39C185.497 44.25 185.667 45.235 185.667 46.345C185.667 46.905 185.607 47.285 185.487 47.485C185.367 47.675 185.137 47.77 184.797 47.77H175.272ZM193.431 55.24C192.091 55.24 191.061 54.865 190.341 54.115C189.631 53.355 189.276 52.31 189.276 50.98V42.385H187.701C187.501 42.385 187.331 42.32 187.191 42.19C187.051 42.06 186.981 41.865 186.981 41.605V40.135L189.456 39.73L190.236 35.53C190.286 35.33 190.381 35.175 190.521 35.065C190.661 34.955 190.841 34.9 191.061 34.9H192.981V39.745H197.091V42.385H192.981V50.725C192.981 51.205 193.096 51.58 193.326 51.85C193.566 52.12 193.891 52.255 194.301 52.255C194.531 52.255 194.721 52.23 194.871 52.18C195.031 52.12 195.166 52.06 195.276 52C195.396 51.94 195.501 51.885 195.591 51.835C195.681 51.775 195.771 51.745 195.861 51.745C195.971 51.745 196.061 51.775 196.131 51.835C196.201 51.885 196.276 51.965 196.356 52.075L197.466 53.875C196.926 54.325 196.306 54.665 195.606 54.895C194.906 55.125 194.181 55.24 193.431 55.24ZM221.585 36.625H215.045V55H211.01V36.625H204.47V33.31H221.585V36.625ZM227.044 39.37C228.184 39.37 229.219 39.555 230.149 39.925C231.089 40.295 231.889 40.82 232.549 41.5C233.219 42.18 233.734 43.01 234.094 43.99C234.454 44.97 234.634 46.065 234.634 47.275C234.634 48.495 234.454 49.595 234.094 50.575C233.734 51.555 233.219 52.39 232.549 53.08C231.889 53.77 231.089 54.3 230.149 54.67C229.219 55.04 228.184 55.225 227.044 55.225C225.894 55.225 224.849 55.04 223.909 54.67C222.969 54.3 222.164 53.77 221.494 53.08C220.834 52.39 220.319 51.555 219.949 50.575C219.589 49.595 219.409 48.495 219.409 47.275C219.409 46.065 219.589 44.97 219.949 43.99C220.319 43.01 220.834 42.18 221.494 41.5C222.164 40.82 222.969 40.295 223.909 39.925C224.849 39.555 225.894 39.37 227.044 39.37ZM227.044 52.375C228.324 52.375 229.269 51.945 229.879 51.085C230.499 50.225 230.809 48.965 230.809 47.305C230.809 45.645 230.499 44.38 229.879 43.51C229.269 42.64 228.324 42.205 227.044 42.205C225.744 42.205 224.779 42.645 224.149 43.525C223.529 44.395 223.219 45.655 223.219 47.305C223.219 48.955 223.529 50.215 224.149 51.085C224.779 51.945 225.744 52.375 227.044 52.375ZM242.969 46.93C243.429 46.93 243.829 46.87 244.169 46.75C244.509 46.62 244.789 46.445 245.009 46.225C245.239 46.005 245.409 45.74 245.519 45.43C245.639 45.12 245.699 44.78 245.699 44.41C245.699 43.65 245.469 43.05 245.009 42.61C244.559 42.16 243.879 41.935 242.969 41.935C242.059 41.935 241.374 42.16 240.914 42.61C240.464 43.05 240.239 43.65 240.239 44.41C240.239 44.77 240.294 45.105 240.404 45.415C240.524 45.725 240.694 45.995 240.914 46.225C241.144 46.445 241.429 46.62 241.769 46.75C242.119 46.87 242.519 46.93 242.969 46.93ZM247.154 55.69C247.154 55.39 247.064 55.145 246.884 54.955C246.704 54.765 246.459 54.62 246.149 54.52C245.839 54.41 245.474 54.33 245.054 54.28C244.644 54.23 244.204 54.195 243.734 54.175C243.274 54.145 242.794 54.12 242.294 54.1C241.804 54.08 241.324 54.04 240.854 53.98C240.444 54.21 240.109 54.48 239.849 54.79C239.599 55.1 239.474 55.46 239.474 55.87C239.474 56.14 239.539 56.39 239.669 56.62C239.809 56.86 240.024 57.065 240.314 57.235C240.614 57.405 240.999 57.535 241.469 57.625C241.939 57.725 242.514 57.775 243.194 57.775C243.884 57.775 244.479 57.72 244.979 57.61C245.479 57.51 245.889 57.365 246.209 57.175C246.539 56.995 246.779 56.775 246.929 56.515C247.079 56.265 247.154 55.99 247.154 55.69ZM250.844 40.135V41.515C250.844 41.955 250.579 42.225 250.049 42.325L248.669 42.58C248.879 43.11 248.984 43.69 248.984 44.32C248.984 45.08 248.829 45.77 248.519 46.39C248.219 47 247.799 47.52 247.259 47.95C246.719 48.38 246.079 48.715 245.339 48.955C244.609 49.185 243.819 49.3 242.969 49.3C242.669 49.3 242.379 49.285 242.099 49.255C241.819 49.225 241.544 49.185 241.274 49.135C240.794 49.425 240.554 49.75 240.554 50.11C240.554 50.42 240.694 50.65 240.974 50.8C241.264 50.94 241.644 51.04 242.114 51.1C242.584 51.16 243.119 51.2 243.719 51.22C244.319 51.23 244.934 51.26 245.564 51.31C246.194 51.36 246.809 51.45 247.409 51.58C248.009 51.7 248.544 51.895 249.014 52.165C249.484 52.435 249.859 52.805 250.139 53.275C250.429 53.735 250.574 54.33 250.574 55.06C250.574 55.74 250.404 56.4 250.064 57.04C249.734 57.68 249.249 58.25 248.609 58.75C247.979 59.25 247.199 59.65 246.269 59.95C245.349 60.26 244.299 60.415 243.119 60.415C241.959 60.415 240.949 60.3 240.089 60.07C239.229 59.85 238.514 59.55 237.944 59.17C237.374 58.8 236.949 58.37 236.669 57.88C236.389 57.39 236.249 56.88 236.249 56.35C236.249 55.63 236.464 55.03 236.894 54.55C237.334 54.06 237.934 53.67 238.694 53.38C238.284 53.17 237.959 52.89 237.719 52.54C237.479 52.19 237.359 51.73 237.359 51.16C237.359 50.93 237.399 50.695 237.479 50.455C237.569 50.205 237.694 49.96 237.854 49.72C238.024 49.48 238.234 49.255 238.484 49.045C238.734 48.825 239.029 48.63 239.369 48.46C238.589 48.04 237.974 47.48 237.524 46.78C237.084 46.08 236.864 45.26 236.864 44.32C236.864 43.56 237.014 42.875 237.314 42.265C237.624 41.645 238.049 41.12 238.589 40.69C239.139 40.25 239.784 39.915 240.524 39.685C241.274 39.455 242.089 39.34 242.969 39.34C243.629 39.34 244.249 39.41 244.829 39.55C245.409 39.68 245.939 39.875 246.419 40.135H250.844ZM262.845 45.535C262.845 45.055 262.775 44.605 262.635 44.185C262.505 43.755 262.305 43.38 262.035 43.06C261.765 42.74 261.42 42.49 261 42.31C260.59 42.12 260.11 42.025 259.56 42.025C258.49 42.025 257.645 42.33 257.025 42.94C256.415 43.55 256.025 44.415 255.855 45.535H262.845ZM255.78 47.77C255.84 48.56 255.98 49.245 256.2 49.825C256.42 50.395 256.71 50.87 257.07 51.25C257.43 51.62 257.855 51.9 258.345 52.09C258.845 52.27 259.395 52.36 259.995 52.36C260.595 52.36 261.11 52.29 261.54 52.15C261.98 52.01 262.36 51.855 262.68 51.685C263.01 51.515 263.295 51.36 263.535 51.22C263.785 51.08 264.025 51.01 264.255 51.01C264.565 51.01 264.795 51.125 264.945 51.355L266.01 52.705C265.6 53.185 265.14 53.59 264.63 53.92C264.12 54.24 263.585 54.5 263.025 54.7C262.475 54.89 261.91 55.025 261.33 55.105C260.76 55.185 260.205 55.225 259.665 55.225C258.595 55.225 257.6 55.05 256.68 54.7C255.76 54.34 254.96 53.815 254.28 53.125C253.6 52.425 253.065 51.565 252.675 50.545C252.285 49.515 252.09 48.325 252.09 46.975C252.09 45.925 252.26 44.94 252.6 44.02C252.94 43.09 253.425 42.285 254.055 41.605C254.695 40.915 255.47 40.37 256.38 39.97C257.3 39.57 258.335 39.37 259.485 39.37C260.455 39.37 261.35 39.525 262.17 39.835C262.99 40.145 263.695 40.6 264.285 41.2C264.875 41.79 265.335 42.52 265.665 43.39C266.005 44.25 266.175 45.235 266.175 46.345C266.175 46.905 266.115 47.285 265.995 47.485C265.875 47.675 265.645 47.77 265.305 47.77H255.78ZM273.939 55.24C272.599 55.24 271.569 54.865 270.849 54.115C270.139 53.355 269.784 52.31 269.784 50.98V42.385H268.209C268.009 42.385 267.839 42.32 267.699 42.19C267.559 42.06 267.489 41.865 267.489 41.605V40.135L269.964 39.73L270.744 35.53C270.794 35.33 270.889 35.175 271.029 35.065C271.169 34.955 271.349 34.9 271.569 34.9H273.489V39.745H277.599V42.385H273.489V50.725C273.489 51.205 273.604 51.58 273.834 51.85C274.074 52.12 274.399 52.255 274.809 52.255C275.039 52.255 275.229 52.23 275.379 52.18C275.539 52.12 275.674 52.06 275.784 52C275.904 51.94 276.009 51.885 276.099 51.835C276.189 51.775 276.279 51.745 276.369 51.745C276.479 51.745 276.569 51.775 276.639 51.835C276.709 51.885 276.784 51.965 276.864 52.075L277.974 53.875C277.434 54.325 276.814 54.665 276.114 54.895C275.414 55.125 274.689 55.24 273.939 55.24ZM283.676 41.26C284.276 40.7 284.936 40.245 285.656 39.895C286.376 39.545 287.221 39.37 288.191 39.37C289.031 39.37 289.776 39.515 290.426 39.805C291.076 40.085 291.616 40.485 292.046 41.005C292.486 41.515 292.816 42.13 293.036 42.85C293.266 43.56 293.381 44.345 293.381 45.205V55H289.676V45.205C289.676 44.265 289.461 43.54 289.031 43.03C288.601 42.51 287.946 42.25 287.066 42.25C286.426 42.25 285.826 42.395 285.266 42.685C284.706 42.975 284.176 43.37 283.676 43.87V55H279.971V32.71H283.676V41.26ZM306.819 45.535C306.819 45.055 306.749 44.605 306.609 44.185C306.479 43.755 306.279 43.38 306.009 43.06C305.739 42.74 305.394 42.49 304.974 42.31C304.564 42.12 304.084 42.025 303.534 42.025C302.464 42.025 301.619 42.33 300.999 42.94C300.389 43.55 299.999 44.415 299.829 45.535H306.819ZM299.754 47.77C299.814 48.56 299.954 49.245 300.174 49.825C300.394 50.395 300.684 50.87 301.044 51.25C301.404 51.62 301.829 51.9 302.319 52.09C302.819 52.27 303.369 52.36 303.969 52.36C304.569 52.36 305.084 52.29 305.514 52.15C305.954 52.01 306.334 51.855 306.654 51.685C306.984 51.515 307.269 51.36 307.509 51.22C307.759 51.08 307.999 51.01 308.229 51.01C308.539 51.01 308.769 51.125 308.919 51.355L309.984 52.705C309.574 53.185 309.114 53.59 308.604 53.92C308.094 54.24 307.559 54.5 306.999 54.7C306.449 54.89 305.884 55.025 305.304 55.105C304.734 55.185 304.179 55.225 303.639 55.225C302.569 55.225 301.574 55.05 300.654 54.7C299.734 54.34 298.934 53.815 298.254 53.125C297.574 52.425 297.039 51.565 296.649 50.545C296.259 49.515 296.064 48.325 296.064 46.975C296.064 45.925 296.234 44.94 296.574 44.02C296.914 43.09 297.399 42.285 298.029 41.605C298.669 40.915 299.444 40.37 300.354 39.97C301.274 39.57 302.309 39.37 303.459 39.37C304.429 39.37 305.324 39.525 306.144 39.835C306.964 40.145 307.669 40.6 308.259 41.2C308.849 41.79 309.309 42.52 309.639 43.39C309.979 44.25 310.149 45.235 310.149 46.345C310.149 46.905 310.089 47.285 309.969 47.485C309.849 47.675 309.619 47.77 309.279 47.77H299.754ZM316.425 42.28C316.905 41.36 317.475 40.64 318.135 40.12C318.795 39.59 319.575 39.325 320.475 39.325C321.185 39.325 321.755 39.48 322.185 39.79L321.945 42.565C321.895 42.745 321.82 42.875 321.72 42.955C321.63 43.025 321.505 43.06 321.345 43.06C321.195 43.06 320.97 43.035 320.67 42.985C320.38 42.935 320.095 42.91 319.815 42.91C319.405 42.91 319.04 42.97 318.72 43.09C318.4 43.21 318.11 43.385 317.85 43.615C317.6 43.835 317.375 44.105 317.175 44.425C316.985 44.745 316.805 45.11 316.635 45.52V55H312.93V39.61H315.105C315.485 39.61 315.75 39.68 315.9 39.82C316.05 39.95 316.15 40.19 316.2 40.54L316.425 42.28ZM350.616 44.155C350.616 45.745 350.351 47.205 349.821 48.535C349.291 49.865 348.546 51.01 347.586 51.97C346.626 52.93 345.471 53.675 344.121 54.205C342.771 54.735 341.271 55 339.621 55H331.356V33.31H339.621C341.271 33.31 342.771 33.58 344.121 34.12C345.471 34.65 346.626 35.395 347.586 36.355C348.546 37.305 349.291 38.445 349.821 39.775C350.351 41.105 350.616 42.565 350.616 44.155ZM346.476 44.155C346.476 42.965 346.316 41.9 345.996 40.96C345.686 40.01 345.231 39.21 344.631 38.56C344.041 37.9 343.321 37.395 342.471 37.045C341.631 36.695 340.681 36.52 339.621 36.52H335.406V51.79H339.621C340.681 51.79 341.631 51.615 342.471 51.265C343.321 50.915 344.041 50.415 344.631 49.765C345.231 49.105 345.686 48.305 345.996 47.365C346.316 46.415 346.476 45.345 346.476 44.155ZM361.343 48.43C360.273 48.48 359.373 48.575 358.643 48.715C357.913 48.845 357.328 49.015 356.888 49.225C356.448 49.435 356.133 49.68 355.943 49.96C355.753 50.24 355.658 50.545 355.658 50.875C355.658 51.525 355.848 51.99 356.228 52.27C356.618 52.55 357.123 52.69 357.743 52.69C358.503 52.69 359.158 52.555 359.708 52.285C360.268 52.005 360.813 51.585 361.343 51.025V48.43ZM352.853 41.755C354.623 40.135 356.753 39.325 359.243 39.325C360.143 39.325 360.948 39.475 361.658 39.775C362.368 40.065 362.968 40.475 363.458 41.005C363.948 41.525 364.318 42.15 364.568 42.88C364.828 43.61 364.958 44.41 364.958 45.28V55H363.278C362.928 55 362.658 54.95 362.468 54.85C362.278 54.74 362.128 54.525 362.018 54.205L361.688 53.095C361.298 53.445 360.918 53.755 360.548 54.025C360.178 54.285 359.793 54.505 359.393 54.685C358.993 54.865 358.563 55 358.103 55.09C357.653 55.19 357.153 55.24 356.603 55.24C355.953 55.24 355.353 55.155 354.803 54.985C354.253 54.805 353.778 54.54 353.378 54.19C352.978 53.84 352.668 53.405 352.448 52.885C352.228 52.365 352.118 51.76 352.118 51.07C352.118 50.68 352.183 50.295 352.313 49.915C352.443 49.525 352.653 49.155 352.943 48.805C353.243 48.455 353.628 48.125 354.098 47.815C354.568 47.505 355.143 47.235 355.823 47.005C356.513 46.775 357.313 46.59 358.223 46.45C359.133 46.3 360.173 46.21 361.343 46.18V45.28C361.343 44.25 361.123 43.49 360.683 43C360.243 42.5 359.608 42.25 358.778 42.25C358.178 42.25 357.678 42.32 357.278 42.46C356.888 42.6 356.543 42.76 356.243 42.94C355.943 43.11 355.668 43.265 355.418 43.405C355.178 43.545 354.908 43.615 354.608 43.615C354.348 43.615 354.128 43.55 353.948 43.42C353.768 43.28 353.623 43.12 353.513 42.94L352.853 41.755ZM381.988 39.61L373.603 59.23C373.493 59.49 373.348 59.685 373.168 59.815C372.998 59.955 372.733 60.025 372.373 60.025H369.613L372.493 53.845L366.268 39.61H369.523C369.813 39.61 370.038 39.68 370.198 39.82C370.368 39.96 370.493 40.12 370.573 40.3L373.843 48.28C373.953 48.55 374.043 48.82 374.113 49.09C374.193 49.36 374.268 49.635 374.338 49.915C374.428 49.635 374.518 49.36 374.608 49.09C374.698 48.81 374.798 48.535 374.908 48.265L377.998 40.3C378.078 40.1 378.208 39.935 378.388 39.805C378.578 39.675 378.788 39.61 379.018 39.61H381.988ZM392.836 45.595C392.836 47.655 393.086 49.68 393.586 51.67C394.086 53.66 394.801 55.53 395.731 57.28C395.831 57.48 395.886 57.655 395.896 57.805C395.916 57.965 395.906 58.1 395.866 58.21C395.826 58.33 395.761 58.43 395.671 58.51C395.591 58.6 395.501 58.675 395.401 58.735L393.751 59.74C393.011 58.6 392.381 57.455 391.861 56.305C391.341 55.155 390.916 53.995 390.586 52.825C390.256 51.655 390.011 50.47 389.851 49.27C389.701 48.07 389.626 46.845 389.626 45.595C389.626 44.345 389.701 43.12 389.851 41.92C390.011 40.71 390.256 39.52 390.586 38.35C390.916 37.18 391.341 36.025 391.861 34.885C392.381 33.735 393.011 32.59 393.751 31.45L395.401 32.44C395.501 32.5 395.591 32.575 395.671 32.665C395.761 32.745 395.826 32.845 395.866 32.965C395.906 33.075 395.916 33.21 395.896 33.37C395.886 33.52 395.831 33.7 395.731 33.91C394.801 35.65 394.086 37.52 393.586 39.52C393.086 41.51 392.836 43.535 392.836 45.595ZM416.473 44.125V52.9C415.373 53.71 414.198 54.305 412.948 54.685C411.708 55.055 410.378 55.24 408.958 55.24C407.188 55.24 405.583 54.965 404.143 54.415C402.713 53.865 401.488 53.1 400.468 52.12C399.458 51.14 398.678 49.97 398.128 48.61C397.578 47.25 397.303 45.765 397.303 44.155C397.303 42.525 397.568 41.03 398.098 39.67C398.628 38.31 399.378 37.14 400.348 36.16C401.328 35.18 402.513 34.42 403.903 33.88C405.293 33.34 406.853 33.07 408.583 33.07C409.463 33.07 410.283 33.14 411.043 33.28C411.813 33.42 412.523 33.615 413.173 33.865C413.833 34.105 414.433 34.4 414.973 34.75C415.513 35.1 416.008 35.485 416.458 35.905L415.303 37.735C415.123 38.025 414.888 38.205 414.598 38.275C414.308 38.335 413.993 38.26 413.653 38.05C413.323 37.86 412.993 37.67 412.663 37.48C412.333 37.29 411.963 37.125 411.553 36.985C411.153 36.845 410.698 36.73 410.188 36.64C409.688 36.55 409.108 36.505 408.448 36.505C407.378 36.505 406.408 36.685 405.538 37.045C404.678 37.405 403.943 37.92 403.333 38.59C402.723 39.26 402.253 40.065 401.923 41.005C401.593 41.945 401.428 42.995 401.428 44.155C401.428 45.395 401.603 46.505 401.953 47.485C402.313 48.455 402.813 49.28 403.453 49.96C404.103 50.63 404.883 51.145 405.793 51.505C406.703 51.855 407.718 52.03 408.838 52.03C409.638 52.03 410.353 51.945 410.983 51.775C411.613 51.605 412.228 51.375 412.828 51.085V47.155H410.098C409.838 47.155 409.633 47.085 409.483 46.945C409.343 46.795 409.273 46.615 409.273 46.405V44.125H416.473ZM435.452 36.625H428.912V55H424.877V36.625H418.337V33.31H435.452V36.625ZM457.55 44.155C457.55 45.745 457.285 47.205 456.755 48.535C456.225 49.865 455.48 51.01 454.52 51.97C453.56 52.93 452.405 53.675 451.055 54.205C449.705 54.735 448.205 55 446.555 55H438.29V33.31H446.555C448.205 33.31 449.705 33.58 451.055 34.12C452.405 34.65 453.56 35.395 454.52 36.355C455.48 37.305 456.225 38.445 456.755 39.775C457.285 41.105 457.55 42.565 457.55 44.155ZM453.41 44.155C453.41 42.965 453.25 41.9 452.93 40.96C452.62 40.01 452.165 39.21 451.565 38.56C450.975 37.9 450.255 37.395 449.405 37.045C448.565 36.695 447.615 36.52 446.555 36.52H442.34V51.79H446.555C447.615 51.79 448.565 51.615 449.405 51.265C450.255 50.915 450.975 50.415 451.565 49.765C452.165 49.105 452.62 48.305 452.93 47.365C453.25 46.415 453.41 45.345 453.41 44.155ZM462.056 45.595C462.056 43.535 461.806 41.51 461.306 39.52C460.816 37.52 460.106 35.65 459.176 33.91C459.066 33.7 459.001 33.52 458.981 33.37C458.971 33.21 458.986 33.075 459.026 32.965C459.066 32.845 459.126 32.745 459.206 32.665C459.296 32.575 459.396 32.5 459.506 32.44L461.156 31.45C461.896 32.59 462.526 33.735 463.046 34.885C463.566 36.025 463.991 37.18 464.321 38.35C464.651 39.52 464.891 40.71 465.041 41.92C465.191 43.12 465.266 44.345 465.266 45.595C465.266 46.845 465.191 48.07 465.041 49.27C464.891 50.47 464.651 51.655 464.321 52.825C463.991 53.995 463.566 55.155 463.046 56.305C462.526 57.455 461.896 58.6 461.156 59.74L459.506 58.735C459.396 58.675 459.296 58.6 459.206 58.51C459.126 58.43 459.066 58.33 459.026 58.21C458.986 58.1 458.971 57.965 458.981 57.805C459.001 57.655 459.066 57.48 459.176 57.28C460.106 55.53 460.816 53.66 461.306 51.67C461.806 49.68 462.056 47.655 462.056 45.595Z" fill="#614563"/>
</svg>
