<svg width="650" height="586" viewBox="0 0 650 586" fill="none" xmlns="http://www.w3.org/2000/svg">
<rect x="164.357" y="6.5" width="10.0971" height="315.534" rx="5.04854" transform="rotate(-40.0696 164.357 6.5)" fill="#C5C5C5"/>
<rect width="10.0971" height="315.534" rx="5.04854" transform="matrix(-0.698243 -0.715861 -0.715861 0.698243 422.357 8.15625)" fill="#C5C5C5"/>
<rect y="86.9609" width="650" height="498.544" rx="40" fill="#FFB6B0"/>
<ellipse cx="178.592" cy="554.581" rx="9.46602" ry="9.46602" fill="#252731"/>
<ellipse cx="310.091" cy="554.652" rx="9.46602" ry="9.46602" fill="#252731"/>
<circle cx="500.437" cy="351.378" r="15.7767" fill="#464C4C"/>
<circle cx="549.66" cy="353.902" r="15.7767" fill="#464C4C"/>
<circle cx="603.932" cy="353.902" r="15.7767" fill="#464C4C"/>
<rect x="210.777" y="546.377" width="66.8932" height="17.6699" rx="8.83495" fill="#252731"/>
<circle cx="547.136" cy="165.842" r="42.2816" transform="rotate(-1.13432 547.136 165.842)" fill="#191814"/>
<rect x="527.623" y="128.215" width="10.6211" height="84.3386" rx="2" transform="rotate(-23.3456 527.623 128.215)" fill="#FFFEF8"/>
<circle cx="547.054" cy="266.731" r="42.2815" transform="rotate(-15.2032 547.054 266.731)" fill="#191814"/>
<rect x="518.98" y="234.975" width="10.6211" height="84.3386" rx="2" transform="rotate(-37.4145 518.98 234.975)" fill="#FFFEF8"/>
<rect x="484.66" y="394.92" width="137.573" height="7.57281" rx="3.78641" fill="#020400"/>
<rect x="484.66" y="416.377" width="137.573" height="7.57281" rx="3.78641" fill="#0B0C00"/>
<rect x="484.66" y="437.834" width="137.573" height="7.57281" rx="3.78641" fill="#0B0C00"/>
<rect x="484.66" y="475.697" width="137.573" height="7.57281" rx="3.78641" fill="#0B0C00"/>
<rect x="484.66" y="499.678" width="137.573" height="7.57281" rx="3.78641" fill="#0B0C00"/>
<rect x="484.66" y="521.135" width="137.573" height="7.57281" rx="3.78641" fill="#0B0C00"/>
</svg>
